<svg width="24" height="24" viewBox="0 0 24 24" fill="none" xmlns="http://www.w3.org/2000/svg">
    <path d="M12 2C6.48 2 2 6.48 2 12C2 16.42 5.17 20.17 9.29 21.58C9.69 21.66 9.84 21.41 9.84 21.2C9.84 21.03 9.84 20.62 9.84 19.89C7.1 20.62 6.42 18.89 6.42 18.89C6.06 17.97 5.5 17.73 5.5 17.73C4.71 17.25 5.58 17.25 5.58 17.25C6.46 17.31 6.94 18.17 6.94 18.17C7.75 19.58 9.05 19.17 9.57 18.91C9.66 18.34 9.92 18 10.19 17.77C7.58 17.53 4.83 16.43 4.83 11.69C4.83 10.35 5.27 9.31 6.01 8.55C5.86 8.28 5.48 7.14 6.13 5.57C6.13 5.57 7.12 5.29 9.84 6.79C10.84 6.5 11.9 6.38 12.95 6.37C14 6.38 15.07 6.5 16.08 6.79C18.8 5.29 19.79 5.57 19.79 5.57C20.44 7.14 20.06 8.28 19.91 8.55C20.65 9.31 21.08 10.35 21.08 11.69C21.08 16.44 18.33 17.52 15.71 17.76C16.08 18.05 16.41 18.66 16.41 19.66C16.41 21.06 16.41 21.9 16.41 22.16C16.41 22.41 16.56 22.66 16.96 22.58C21.08 20.17 24 16.42 24 12C24 6.48 19.52 2 14 2H12Z" fill="#181717"/>
</svg>
