<svg width="24" height="24" viewBox="0 0 24 24" fill="none" xmlns="http://www.w3.org/2000/svg">
    <path d="M19 3H5C4.44772 3 4 3.44772 4 4V20C4 20.5523 4.44772 21 5 21H19C19.5523 21 20 20.5523 20 20V4C20 3.44772 19.5523 3 19 3ZM8.5 18H6V10H8.5V18ZM7.25 8.75C6.56 8.75 6 8.19 6 7.5C6 6.81 6.56 6.25 7.25 6.25C7.94 6.25 8.5 6.81 8.5 7.5C8.5 8.19 7.94 8.75 7.25 8.75ZM18 18H15.5V13.5C15.5 12.67 14.83 12 14 12C13.17 12 12.5 12.67 12.5 13.5V18H10V10H12.5V11.09C12.99 10.42 13.75 10 14.6 10C16.21 10 17.5 11.29 17.5 12.9V18H18Z" fill="currentColor"/>
</svg>
