<svg width="24" height="24" viewBox="0 0 24 24" fill="none" xmlns="http://www.w3.org/2000/svg">
    <path d="M21 12.5C21 17.1944 17.1944 21 12.5 21C9.90902 21 7.55213 19.7895 6.13137 17.8144C5.83948 17.4107 6.05831 16.8443 6.54008 16.7707C7.32185 16.6483 8.14415 16.5 9 16.5C13.6944 16.5 17.5 12.6944 17.5 8C17.5 7.14415 17.6483 6.32185 17.7707 5.54008C17.8443 5.05831 18.4107 4.83948 18.8144 5.13137C20.7895 6.55213 22 8.90902 22 12.5C22 14.1217 21.5893 15.5976 20.8454 16.8454C20.4025 17.5631 19.5687 18 18.5 18C20.2091 18 21 12.5 21 12.5Z" fill="#ffffff"/>
</svg>
